MetaMessage('time_signature', numerator=4, denominator=4, clocks_per_click=24, notated_32nd_notes_per_beat=8, time=0)
MetaMessage('key_signature', key='A', time=0)
MetaMessage('set_tempo', tempo=923075, time=0)
MetaMessage('set_tempo', tempo=923074, time=1024)
MetaMessage('time_signature', numerator=3, denominator=4, clocks_per_click=24, notated_32nd_notes_per_beat=8, time=0)
MetaMessage('set_tempo', tempo=923073, time=768)
MetaMessage('time_signature', numerator=4, denominator=4, clocks_per_click=24, notated_32nd_notes_per_beat=8, time=0)
MetaMessage('set_tempo', tempo=923073, time=1024)
MetaMessage('time_signature', numerator=3, denominator=4, clocks_per_click=24, notated_32nd_notes_per_beat=8, time=0)
MetaMessage('set_tempo', tempo=923073, time=768)
MetaMessage('time_signature', numerator=4, denominator=4, clocks_per_click=24, notated_32nd_notes_per_beat=8, time=0)
MetaMessage('set_tempo', tempo=923073, time=15360)
MetaMessage('time_signature', numerator=5, denominator=4, clocks_per_click=24, notated_32nd_notes_per_beat=8, time=0)
MetaMessage('set_tempo', tempo=1384608, time=768)
MetaMessage('set_tempo', tempo=2076913, time=128)
MetaMessage('set_tempo', tempo=1384608, time=256)
MetaMessage('set_tempo', tempo=923073, time=128)
MetaMessage('time_signature', numerator=4, denominator=4, clocks_per_click=24, notated_32nd_notes_per_beat=8, time=0)
MetaMessage('set_tempo', tempo=1384608, time=23808)
MetaMessage('set_tempo', tempo=2076913, time=256)
MetaMessage('set_tempo', tempo=923073, time=256)
MetaMessage('set_tempo', tempo=1384608, time=256)
MetaMessage('end_of_track', time=1)
control_change channel=0 control=0 value=0 time=0
control_change channel=0 control=32 value=0 time=0
program_change channel=0 program=0 time=0
MetaMessage('track_name', name='Piano', time=0)
note_on channel=0 note=81 velocity=70 time=0
note_on channel=0 note=54 velocity=72 time=0
note_on channel=0 note=81 velocity=0 time=128
note_on channel=0 note=54 velocity=0 time=0
note_on channel=0 note=80 velocity=71 time=0
note_on channel=0 note=61 velocity=88 time=0
note_on channel=0 note=80 velocity=0 time=128
note_on channel=0 note=61 velocity=0 time=0
note_on channel=0 note=81 velocity=79 time=0
note_on channel=0 note=66 velocity=90 time=0
note_on channel=0 note=81 velocity=0 time=128
note_on channel=0 note=80 velocity=68 time=0
note_on channel=0 note=80 velocity=0 time=128
note_on channel=0 note=66 velocity=0 time=0
note_on channel=0 note=81 velocity=75 time=0
note_on channel=0 note=50 velocity=65 time=0
note_on channel=0 note=81 velocity=0 time=128
note_on channel=0 note=50 velocity=0 time=0
note_on channel=0 note=76 velocity=68 time=0
note_on channel=0 note=57 velocity=82 time=0
note_on channel=0 note=76 velocity=0 time=128
note_on channel=0 note=57 velocity=0 time=0
note_on channel=0 note=81 velocity=85 time=0
note_on channel=0 note=64 velocity=91 time=0
note_on channel=0 note=81 velocity=0 time=128
note_on channel=0 note=74 velocity=65 time=0
note_on channel=0 note=74 velocity=0 time=768
note_on channel=0 note=69 velocity=66 time=0
note_on channel=0 note=69 velocity=0 time=64
note_on channel=0 note=73 velocity=79 time=0
note_on channel=0 note=73 velocity=0 time=64
note_on channel=0 note=64 velocity=0 time=0
note_on channel=0 note=81 velocity=92 time=0
note_on channel=0 note=54 velocity=65 time=0
note_on channel=0 note=81 velocity=0 time=128
note_on channel=0 note=54 velocity=0 time=0
note_on channel=0 note=80 velocity=79 time=0
note_on channel=0 note=61 velocity=91 time=0
note_on channel=0 note=80 velocity=0 time=128
note_on channel=0 note=61 velocity=0 time=0
note_on channel=0 note=81 velocity=77 time=0
note_on channel=0 note=66 velocity=86 time=0
note_on channel=0 note=81 velocity=0 time=128
note_on channel=0 note=80 velocity=73 time=0
note_on channel=0 note=80 velocity=0 time=128
note_on channel=0 note=66 velocity=0 time=0
note_on channel=0 note=81 velocity=81 time=0
note_on channel=0 note=50 velocity=71 time=0
note_on channel=0 note=81 velocity=0 time=128
note_on channel=0 note=50 velocity=0 time=0
note_on channel=0 note=76 velocity=64 time=0
note_on channel=0 note=57 velocity=85 time=0
note_on channel=0 note=76 velocity=0 time=128
note_on channel=0 note=57 velocity=0 time=0
note_on channel=0 note=81 velocity=86 time=0
note_on channel=0 note=64 velocity=90 time=0
note_on channel=0 note=81 velocity=0 time=128
note_on channel=0 note=74 velocity=61 time=0
note_on channel=0 note=74 velocity=0 time=768
note_on channel=0 note=69 velocity=68 time=0
note_on channel=0 note=69 velocity=0 time=64
note_on channel=0 note=73 velocity=82 time=0
note_on channel=0 note=73 velocity=0 time=64
note_on channel=0 note=64 velocity=0 time=0
note_on channel=0 note=81 velocity=93 time=0
note_on channel=0 note=54 velocity=68 time=0
note_on channel=0 note=81 velocity=0 time=128
note_on channel=0 note=54 velocity=0 time=0
note_on channel=0 note=80 velocity=77 time=0
note_on channel=0 note=61 velocity=87 time=0
note_on channel=0 note=80 velocity=0 time=64
note_on channel=0 note=81 velocity=85 time=0
note_on channel=0 note=61 velocity=0 time=64
note_on channel=0 note=66 velocity=87 time=0
note_on channel=0 note=81 velocity=0 time=64
note_on channel=0 note=69 velocity=58 time=0
note_on channel=0 note=69 velocity=0 time=64
note_on channel=0 note=80 velocity=88 time=0
note_on channel=0 note=80 velocity=0 time=64
note_on channel=0 note=81 velocity=86 time=0
note_on channel=0 note=66 velocity=0 time=64
note_on channel=0 note=50 velocity=66 time=0
note_on channel=0 note=81 velocity=0 time=64
note_on channel=0 note=69 velocity=56 time=0
note_on channel=0 note=69 velocity=0 time=64
note_on channel=0 note=50 velocity=0 time=0
note_on channel=0 note=76 velocity=89 time=0
note_on channel=0 note=57 velocity=83 time=0
note_on channel=0 note=76 velocity=0 time=64
note_on channel=0 note=81 velocity=89 time=0
note_on channel=0 note=57 velocity=0 time=64
note_on channel=0 note=64 velocity=93 time=0
note_on channel=0 note=81 velocity=0 time=64
note_on channel=0 note=69 velocity=58 time=0
note_on channel=0 note=69 velocity=0 time=64
note_on channel=0 note=64 velocity=0 time=0
note_on channel=0 note=74 velocity=83 time=0
note_on channel=0 note=50 velocity=75 time=0
note_on channel=0 note=74 velocity=0 time=64
note_on channel=0 note=69 velocity=71 time=0
note_on channel=0 note=69 velocity=0 time=64
note_on channel=0 note=50 velocity=0 time=0
note_on channel=0 note=73 velocity=82 time=0
note_on channel=0 note=45 velocity=68 time=0
note_on channel=0 note=73 velocity=0 time=128
note_on channel=0 note=45 velocity=0 time=0
note_on channel=0 note=74 velocity=81 time=0
note_on channel=0 note=52 velocity=85 time=0
note_on channel=0 note=74 velocity=0 time=128
note_on channel=0 note=52 velocity=0 time=0
note_on channel=0 note=69 velocity=83 time=0
note_on channel=0 note=76 velocity=83 time=0
note_on channel=0 note=61 velocity=96 time=0
note_on channel=0 note=69 velocity=0 time=128
note_on channel=0 note=76 velocity=0 time=0
note_on channel=0 note=73 velocity=70 time=0
note_on channel=0 note=73 velocity=0 time=128
note_on channel=0 note=61 velocity=0 time=0
note_on channel=0 note=68 velocity=77 time=0
note_on channel=0 note=71 velocity=77 time=0
note_on channel=0 note=56 velocity=74 time=0
note_on channel=0 note=56 velocity=0 time=128
note_on channel=0 note=59 velocity=82 time=0
note_on channel=0 note=59 velocity=0 time=128
note_on channel=0 note=64 velocity=84 time=0
note_on channel=0 note=68 velocity=0 time=128
note_on channel=0 note=71 velocity=0 time=0
note_on channel=0 note=69 velocity=64 time=0
note_on channel=0 note=69 velocity=0 time=64
note_on channel=0 note=68 velocity=72 time=0
note_on channel=0 note=68 velocity=0 time=64
note_on channel=0 note=64 velocity=0 time=0
note_on channel=0 note=69 velocity=79 time=0
note_on channel=0 note=54 velocity=73 time=0
note_on channel=0 note=54 velocity=0 time=128
note_on channel=0 note=61 velocity=90 time=0
note_on channel=0 note=61 velocity=0 time=128
note_on channel=0 note=66 velocity=88 time=0
note_on channel=0 note=69 velocity=0 time=64
note_on channel=0 note=64 velocity=70 time=0
note_on channel=0 note=64 velocity=0 time=64
note_on channel=0 note=69 velocity=88 time=0
note_on channel=0 note=69 velocity=0 time=64
note_on channel=0 note=71 velocity=84 time=0
note_on channel=0 note=71 velocity=0 time=64
note_on channel=0 note=66 velocity=0 time=0
note_on channel=0 note=73 velocity=84 time=0
note_on channel=0 note=50 velocity=73 time=0
note_on channel=0 note=50 velocity=0 time=128
note_on channel=0 note=57 velocity=83 time=0
note_on channel=0 note=57 velocity=0 time=128
note_on channel=0 note=64 velocity=89 time=0
note_on channel=0 note=73 velocity=0 time=128
note_on channel=0 note=73 velocity=77 time=0
note_on channel=0 note=73 velocity=0 time=64
note_on channel=0 note=74 velocity=81 time=0
note_on channel=0 note=74 velocity=0 time=64
note_on channel=0 note=64 velocity=0 time=0
note_on channel=0 note=76 velocity=83 time=0
note_on channel=0 note=45 velocity=66 time=0
note_on channel=0 note=45 velocity=0 time=128
note_on channel=0 note=52 velocity=84 time=0
note_on channel=0 note=52 velocity=0 time=128
note_on channel=0 note=61 velocity=94 time=0
note_on channel=0 note=76 velocity=0 time=128
note_on channel=0 note=74 velocity=69 time=0
note_on channel=0 note=74 velocity=0 time=64
note_on channel=0 note=73 velocity=72 time=0
note_on channel=0 note=73 velocity=0 time=64
note_on channel=0 note=61 velocity=0 time=0
note_on channel=0 note=71 velocity=62 time=0
note_on channel=0 note=52 velocity=69 time=0
note_on channel=0 note=52 velocity=0 time=128
note_on channel=0 note=59 velocity=82 time=0
note_on channel=0 note=59 velocity=0 time=128
note_on channel=0 note=68 velocity=95 time=0
note_on channel=0 note=71 velocity=0 time=256
note_on channel=0 note=68 velocity=0 time=0
note_on channel=0 note=81 velocity=91 time=0
note_on channel=0 note=54 velocity=68 time=0
note_on channel=0 note=81 velocity=0 time=128
note_on channel=0 note=54 velocity=0 time=0
note_on channel=0 note=80 velocity=76 time=0
note_on channel=0 note=61 velocity=93 time=0
note_on channel=0 note=80 velocity=0 time=64
note_on channel=0 note=81 velocity=79 time=0
note_on channel=0 note=61 velocity=0 time=64
note_on channel=0 note=66 velocity=87 time=0
note_on channel=0 note=81 velocity=0 time=64
note_on channel=0 note=69 velocity=60 time=0
note_on channel=0 note=69 velocity=0 time=64
note_on channel=0 note=80 velocity=92 time=0
note_on channel=0 note=80 velocity=0 time=64
note_on channel=0 note=81 velocity=80 time=0
note_on channel=0 note=66 velocity=0 time=64
note_on channel=0 note=50 velocity=65 time=0
note_on channel=0 note=81 velocity=0 time=64
note_on channel=0 note=69 velocity=57 time=0
note_on channel=0 note=69 velocity=0 time=64
note_on channel=0 note=50 velocity=0 time=0
note_on channel=0 note=76 velocity=89 time=0
note_on channel=0 note=57 velocity=77 time=0
note_on channel=0 note=76 velocity=0 time=64
note_on channel=0 note=81 velocity=86 time=0
note_on channel=0 note=57 velocity=0 time=64
note_on channel=0 note=64 velocity=96 time=0
note_on channel=0 note=81 velocity=0 time=64
note_on channel=0 note=69 velocity=54 time=0
note_on channel=0 note=69 velocity=0 time=64
note_on channel=0 note=64 velocity=0 time=0
note_on channel=0 note=74 velocity=86 time=0
note_on channel=0 note=50 velocity=72 time=0
note_on channel=0 note=74 velocity=0 time=64
note_on channel=0 note=69 velocity=66 time=0
note_on channel=0 note=69 velocity=0 time=64
note_on channel=0 note=50 velocity=0 time=0
note_on channel=0 note=73 velocity=85 time=0
note_on channel=0 note=45 velocity=71 time=0
note_on channel=0 note=73 velocity=0 time=128
note_on channel=0 note=45 velocity=0 time=0
note_on channel=0 note=74 velocity=79 time=0
note_on channel=0 note=52 velocity=79 time=0
note_on channel=0 note=74 velocity=0 time=128
note_on channel=0 note=52 velocity=0 time=0
note_on channel=0 note=76 velocity=79 time=0
note_on channel=0 note=61 velocity=95 time=0
note_on channel=0 note=76 velocity=0 time=128
note_on channel=0 note=61 velocity=0 time=0
note_on channel=0 note=85 velocity=95 time=0
note_on channel=0 note=45 velocity=69 time=0
note_on channel=0 note=85 velocity=0 time=128
note_on channel=0 note=45 velocity=0 time=0
note_on channel=0 note=83 velocity=72 time=0
note_on channel=0 note=52 velocity=81 time=0
note_on channel=0 note=83 velocity=0 time=128
note_on channel=0 note=52 velocity=0 time=0
note_on channel=0 note=76 velocity=60 time=0
note_on channel=0 note=59 velocity=84 time=0
note_on channel=0 note=76 velocity=0 time=128
note_on channel=0 note=59 velocity=0 time=0
note_on channel=0 note=83 velocity=89 time=0
note_on channel=0 note=61 velocity=84 time=0
note_on channel=0 note=83 velocity=0 time=128
note_on channel=0 note=81 velocity=76 time=0
note_on channel=0 note=81 velocity=0 time=64
note_on channel=0 note=80 velocity=70 time=0
note_on channel=0 note=80 velocity=0 time=64
note_on channel=0 note=61 velocity=0 time=0
note_on channel=0 note=76 velocity=84 time=0
note_on channel=0 note=81 velocity=84 time=0
note_on channel=0 note=54 velocity=75 time=0
note_on channel=0 note=54 velocity=0 time=128
note_on channel=0 note=61 velocity=91 time=0
note_on channel=0 note=61 velocity=0 time=128
note_on channel=0 note=66 velocity=91 time=0
note_on channel=0 note=76 velocity=0 time=128
note_on channel=0 note=81 velocity=0 time=0
note_on channel=0 note=69 velocity=52 time=0
note_on channel=0 note=69 velocity=0 time=64
note_on channel=0 note=71 velocity=76 time=0
note_on channel=0 note=71 velocity=0 time=64
note_on channel=0 note=66 velocity=0 time=0
note_on channel=0 note=73 velocity=80 time=0
note_on channel=0 note=50 velocity=67 time=0
note_on channel=0 note=73 velocity=0 time=128
note_on channel=0 note=50 velocity=0 time=0
note_on channel=0 note=64 velocity=55 time=0
note_on channel=0 note=57 velocity=79 time=0
note_on channel=0 note=64 velocity=0 time=128
note_on channel=0 note=57 velocity=0 time=0
note_on channel=0 note=69 velocity=82 time=0
note_on channel=0 note=64 velocity=92 time=0
note_on channel=0 note=69 velocity=0 time=128
note_on channel=0 note=73 velocity=86 time=0
note_on channel=0 note=73 velocity=0 time=64
note_on channel=0 note=74 velocity=83 time=0
note_on channel=0 note=74 velocity=0 time=64
note_on channel=0 note=64 velocity=0 time=0
note_on channel=0 note=76 velocity=80 time=0
note_on channel=0 note=45 velocity=70 time=0
note_on channel=0 note=76 velocity=0 time=128
note_on channel=0 note=45 velocity=0 time=0
note_on channel=0 note=64 velocity=58 time=0
note_on channel=0 note=52 velocity=83 time=0
note_on channel=0 note=64 velocity=0 time=128
note_on channel=0 note=52 velocity=0 time=0
note_on channel=0 note=73 velocity=89 time=0
note_on channel=0 note=61 velocity=93 time=0
note_on channel=0 note=73 velocity=0 time=128
note_on channel=0 note=74 velocity=86 time=0
note_on channel=0 note=74 velocity=0 time=64
note_on channel=0 note=73 velocity=77 time=0
note_on channel=0 note=73 velocity=0 time=64
note_on channel=0 note=61 velocity=0 time=0
note_on channel=0 note=71 velocity=74 time=0
note_on channel=0 note=52 velocity=70 time=0
note_on channel=0 note=52 velocity=0 time=128
note_on channel=0 note=59 velocity=80 time=0
note_on channel=0 note=71 velocity=0 time=128
note_on channel=0 note=59 velocity=0 time=0
note_on channel=0 note=81 velocity=95 time=0
note_on channel=0 note=64 velocity=90 time=0
note_on channel=0 note=81 velocity=0 time=64
note_on channel=0 note=83 velocity=83 time=0
note_on channel=0 note=83 velocity=0 time=64
note_on channel=0 note=81 velocity=71 time=0
note_on channel=0 note=81 velocity=0 time=64
note_on channel=0 note=80 velocity=76 time=0
note_on channel=0 note=80 velocity=0 time=64
note_on channel=0 note=64 velocity=0 time=0
note_on channel=0 note=81 velocity=75 time=0
note_on channel=0 note=54 velocity=74 time=0
note_on channel=0 note=81 velocity=0 time=64
note_on channel=0 note=69 velocity=56 time=0
note_on channel=0 note=69 velocity=0 time=64
note_on channel=0 note=54 velocity=0 time=0
note_on channel=0 note=76 velocity=86 time=0
note_on channel=0 note=61 velocity=89 time=0
note_on channel=0 note=76 velocity=0 time=64
note_on channel=0 note=69 velocity=64 time=0
note_on channel=0 note=69 velocity=0 time=64
note_on channel=0 note=61 velocity=0 time=0
note_on channel=0 note=81 velocity=97 time=0
note_on channel=0 note=66 velocity=88 time=0
note_on channel=0 note=81 velocity=0 time=64
note_on channel=0 note=83 velocity=88 time=0
note_on channel=0 note=83 velocity=0 time=64
note_on channel=0 note=66 velocity=0 time=0
note_on channel=0 note=81 velocity=71 time=0
note_on channel=0 note=54 velocity=65 time=0
note_on channel=0 note=81 velocity=0 time=64
note_on channel=0 note=80 velocity=70 time=0
note_on channel=0 note=80 velocity=0 time=64
note_on channel=0 note=54 velocity=0 time=0
note_on channel=0 note=81 velocity=82 time=0
note_on channel=0 note=50 velocity=69 time=0
note_on channel=0 note=81 velocity=0 time=64
note_on channel=0 note=69 velocity=56 time=0
note_on channel=0 note=69 velocity=0 time=64
note_on channel=0 note=50 velocity=0 time=0
note_on channel=0 note=76 velocity=89 time=0
note_on channel=0 note=57 velocity=76 time=0
note_on channel=0 note=76 velocity=0 time=64
note_on channel=0 note=69 velocity=64 time=0
note_on channel=0 note=69 velocity=0 time=64
note_on channel=0 note=57 velocity=0 time=0
note_on channel=0 note=81 velocity=97 time=0
note_on channel=0 note=64 velocity=95 time=0
note_on channel=0 note=81 velocity=0 time=64
note_on channel=0 note=83 velocity=88 time=0
note_on channel=0 note=83 velocity=0 time=64
note_on channel=0 note=64 velocity=0 time=0
note_on channel=0 note=81 velocity=75 time=0
note_on channel=0 note=50 velocity=68 time=0
note_on channel=0 note=81 velocity=0 time=64
note_on channel=0 note=80 velocity=76 time=0
note_on channel=0 note=80 velocity=0 time=64
note_on channel=0 note=50 velocity=0 time=0
note_on channel=0 note=81 velocity=80 time=0
note_on channel=0 note=45 velocity=72 time=0
note_on channel=0 note=81 velocity=0 time=64
note_on channel=0 note=83 velocity=82 time=0
note_on channel=0 note=83 velocity=0 time=64
note_on channel=0 note=45 velocity=0 time=0
note_on channel=0 note=85 velocity=78 time=0
note_on channel=0 note=52 velocity=87 time=0
note_on channel=0 note=85 velocity=0 time=64
note_on channel=0 note=86 velocity=76 time=0
note_on channel=0 note=86 velocity=0 time=64
note_on channel=0 note=52 velocity=0 time=0
note_on channel=0 note=88 velocity=80 time=0
note_on channel=0 note=61 velocity=94 time=0
note_on channel=0 note=88 velocity=0 time=64
note_on channel=0 note=85 velocity=72 time=0
note_on channel=0 note=85 velocity=0 time=64
note_on channel=0 note=61 velocity=0 time=0
note_on channel=0 note=83 velocity=67 time=0
note_on channel=0 note=45 velocity=75 time=0
note_on channel=0 note=83 velocity=0 time=64
note_on channel=0 note=81 velocity=75 time=0
note_on channel=0 note=81 velocity=0 time=64
note_on channel=0 note=45 velocity=0 time=0
note_on channel=0 note=80 velocity=70 time=0
note_on channel=0 note=52 velocity=82 time=0
note_on channel=0 note=80 velocity=0 time=128
note_on channel=0 note=52 velocity=0 time=0
note_on channel=0 note=71 velocity=58 time=0
note_on channel=0 note=59 velocity=85 time=0
note_on channel=0 note=71 velocity=0 time=128
note_on channel=0 note=59 velocity=0 time=0
note_on channel=0 note=81 velocity=95 time=0
note_on channel=0 note=64 velocity=88 time=0
note_on channel=0 note=81 velocity=0 time=64
note_on channel=0 note=83 velocity=86 time=0
note_on channel=0 note=83 velocity=0 time=64
note_on channel=0 note=64 velocity=0 time=0
note_on channel=0 note=81 velocity=73 time=0
note_on channel=0 note=52 velocity=70 time=0
note_on channel=0 note=81 velocity=0 time=64
note_on channel=0 note=80 velocity=77 time=0
note_on channel=0 note=80 velocity=0 time=64
note_on channel=0 note=52 velocity=0 time=0
note_on channel=0 note=81 velocity=75 time=0
note_on channel=0 note=54 velocity=79 time=0
note_on channel=0 note=81 velocity=0 time=64
note_on channel=0 note=69 velocity=56 time=0
note_on channel=0 note=69 velocity=0 time=64
note_on channel=0 note=54 velocity=0 time=0
note_on channel=0 note=76 velocity=88 time=0
note_on channel=0 note=61 velocity=90 time=0
note_on channel=0 note=76 velocity=0 time=64
note_on channel=0 note=69 velocity=64 time=0
note_on channel=0 note=69 velocity=0 time=64
note_on channel=0 note=61 velocity=0 time=0
note_on channel=0 note=81 velocity=95 time=0
note_on channel=0 note=66 velocity=88 time=0
note_on channel=0 note=81 velocity=0 time=64
note_on channel=0 note=83 velocity=84 time=0
note_on channel=0 note=83 velocity=0 time=64
note_on channel=0 note=66 velocity=0 time=0
note_on channel=0 note=81 velocity=74 time=0
note_on channel=0 note=54 velocity=68 time=0
note_on channel=0 note=81 velocity=0 time=64
note_on channel=0 note=80 velocity=72 time=0
note_on channel=0 note=80 velocity=0 time=64
note_on channel=0 note=54 velocity=0 time=0
note_on channel=0 note=81 velocity=81 time=0
note_on channel=0 note=50 velocity=67 time=0
note_on channel=0 note=81 velocity=0 time=64
note_on channel=0 note=69 velocity=52 time=0
note_on channel=0 note=69 velocity=0 time=64
note_on channel=0 note=50 velocity=0 time=0
note_on channel=0 note=76 velocity=90 time=0
note_on channel=0 note=57 velocity=83 time=0
note_on channel=0 note=76 velocity=0 time=64
note_on channel=0 note=69 velocity=66 time=0
note_on channel=0 note=69 velocity=0 time=64
note_on channel=0 note=57 velocity=0 time=0
note_on channel=0 note=81 velocity=96 time=0
note_on channel=0 note=64 velocity=93 time=0
note_on channel=0 note=81 velocity=0 time=64
note_on channel=0 note=83 velocity=86 time=0
note_on channel=0 note=83 velocity=0 time=64
note_on channel=0 note=64 velocity=0 time=0
note_on channel=0 note=81 velocity=74 time=0
note_on channel=0 note=50 velocity=70 time=0
note_on channel=0 note=81 velocity=0 time=64
note_on channel=0 note=80 velocity=69 time=0
note_on channel=0 note=80 velocity=0 time=64
note_on channel=0 note=50 velocity=0 time=0
note_on channel=0 note=81 velocity=81 time=0
note_on channel=0 note=45 velocity=71 time=0
note_on channel=0 note=81 velocity=0 time=64
note_on channel=0 note=83 velocity=81 time=0
note_on channel=0 note=83 velocity=0 time=64
note_on channel=0 note=45 velocity=0 time=0
note_on channel=0 note=85 velocity=81 time=0
note_on channel=0 note=52 velocity=85 time=0
note_on channel=0 note=85 velocity=0 time=64
note_on channel=0 note=86 velocity=81 time=0
note_on channel=0 note=86 velocity=0 time=64
note_on channel=0 note=52 velocity=0 time=0
note_on channel=0 note=88 velocity=87 time=0
note_on channel=0 note=61 velocity=94 time=0
note_on channel=0 note=88 velocity=0 time=64
note_on channel=0 note=85 velocity=71 time=0
note_on channel=0 note=85 velocity=0 time=64
note_on channel=0 note=61 velocity=0 time=0
note_on channel=0 note=83 velocity=68 time=0
note_on channel=0 note=45 velocity=66 time=0
note_on channel=0 note=83 velocity=0 time=64
note_on channel=0 note=81 velocity=72 time=0
note_on channel=0 note=81 velocity=0 time=64
note_on channel=0 note=45 velocity=0 time=0
note_on channel=0 note=80 velocity=72 time=0
note_on channel=0 note=52 velocity=83 time=0
note_on channel=0 note=80 velocity=0 time=128
note_on channel=0 note=52 velocity=0 time=0
note_on channel=0 note=71 velocity=55 time=0
note_on channel=0 note=59 velocity=85 time=0
note_on channel=0 note=71 velocity=0 time=128
note_on channel=0 note=59 velocity=0 time=0
note_on channel=0 note=81 velocity=94 time=0
note_on channel=0 note=64 velocity=87 time=0
note_on channel=0 note=81 velocity=0 time=64
note_on channel=0 note=81 velocity=83 time=0
note_on channel=0 note=81 velocity=0 time=32
note_on channel=0 note=83 velocity=79 time=0
note_on channel=0 note=64 velocity=0 time=32
note_on channel=0 note=52 velocity=71 time=0
note_on channel=0 note=83 velocity=0 time=32
note_on channel=0 note=81 velocity=74 time=0
note_on channel=0 note=81 velocity=0 time=64
note_on channel=0 note=80 velocity=75 time=0
note_on channel=0 note=80 velocity=0 time=32
note_on channel=0 note=52 velocity=0 time=0
note_on channel=0 note=81 velocity=81 time=0
note_on channel=0 note=42 velocity=67 time=0
note_on channel=0 note=81 velocity=0 time=64
note_on channel=0 note=69 velocity=52 time=0
note_on channel=0 note=69 velocity=0 time=64
note_on channel=0 note=42 velocity=0 time=0
note_on channel=0 note=76 velocity=91 time=0
note_on channel=0 note=49 velocity=82 time=0
note_on channel=0 note=76 velocity=0 time=64
note_on channel=0 note=69 velocity=66 time=0
note_on channel=0 note=69 velocity=0 time=64
note_on channel=0 note=49 velocity=0 time=0
note_on channel=0 note=81 velocity=92 time=0
note_on channel=0 note=54 velocity=81 time=0
note_on channel=0 note=81 velocity=0 time=96
note_on channel=0 note=83 velocity=80 time=0
note_on channel=0 note=83 velocity=0 time=32
note_on channel=0 note=54 velocity=0 time=0
note_on channel=0 note=81 velocity=76 time=0
note_on channel=0 note=42 velocity=68 time=0
note_on channel=0 note=81 velocity=0 time=64
note_on channel=0 note=80 velocity=74 time=0
note_on channel=0 note=80 velocity=0 time=64
note_on channel=0 note=42 velocity=0 time=0
note_on channel=0 note=81 velocity=79 time=0
note_on channel=0 note=50 velocity=84 time=0
note_on channel=0 note=81 velocity=0 time=64
note_on channel=0 note=69 velocity=55 time=0
note_on channel=0 note=69 velocity=0 time=64
note_on channel=0 note=50 velocity=0 time=0
note_on channel=0 note=76 velocity=87 time=0
note_on channel=0 note=57 velocity=82 time=0
note_on channel=0 note=76 velocity=0 time=64
note_on channel=0 note=69 velocity=63 time=0
note_on channel=0 note=69 velocity=0 time=64
note_on channel=0 note=57 velocity=0 time=0
note_on channel=0 note=81 velocity=98 time=0
note_on channel=0 note=64 velocity=92 time=0
note_on channel=0 note=81 velocity=0 time=96
note_on channel=0 note=83 velocity=82 time=0
note_on channel=0 note=83 velocity=0 time=32
note_on channel=0 note=64 velocity=0 time=0
note_on channel=0 note=81 velocity=73 time=0
note_on channel=0 note=50 velocity=71 time=0
note_on channel=0 note=81 velocity=0 time=64
note_on channel=0 note=80 velocity=70 time=0
note_on channel=0 note=80 velocity=0 time=64
note_on channel=0 note=50 velocity=0 time=0
note_on channel=0 note=81 velocity=78 time=0
note_on channel=0 note=45 velocity=71 time=0
note_on channel=0 note=81 velocity=0 time=64
note_on channel=0 note=83 velocity=79 time=0
note_on channel=0 note=83 velocity=0 time=64
note_on channel=0 note=45 velocity=0 time=0
note_on channel=0 note=85 velocity=79 time=0
note_on channel=0 note=52 velocity=80 time=0
note_on channel=0 note=85 velocity=0 time=64
note_on channel=0 note=86 velocity=81 time=0
note_on channel=0 note=86 velocity=0 time=64
note_on channel=0 note=52 velocity=0 time=0
note_on channel=0 note=88 velocity=80 time=0
note_on channel=0 note=61 velocity=91 time=0
note_on channel=0 note=88 velocity=0 time=64
note_on channel=0 note=85 velocity=66 time=0
note_on channel=0 note=85 velocity=0 time=64
note_on channel=0 note=61 velocity=0 time=0
note_on channel=0 note=83 velocity=70 time=0
note_on channel=0 note=45 velocity=66 time=0
note_on channel=0 note=83 velocity=0 time=64
note_on channel=0 note=81 velocity=71 time=0
note_on channel=0 note=81 velocity=0 time=64
note_on channel=0 note=45 velocity=0 time=0
note_on channel=0 note=80 velocity=71 time=0
note_on channel=0 note=42 velocity=73 time=0
note_on channel=0 note=80 velocity=0 time=128
note_on channel=0 note=42 velocity=0 time=0
note_on channel=0 note=71 velocity=61 time=0
note_on channel=0 note=47 velocity=83 time=0
note_on channel=0 note=71 velocity=0 time=128
note_on channel=0 note=47 velocity=0 time=0
note_on channel=0 note=81 velocity=94 time=0
note_on channel=0 note=56 velocity=83 time=0
note_on channel=0 note=81 velocity=0 time=96
note_on channel=0 note=83 velocity=84 time=0
note_on channel=0 note=83 velocity=0 time=32
note_on channel=0 note=56 velocity=0 time=0
note_on channel=0 note=81 velocity=71 time=0
note_on channel=0 note=42 velocity=68 time=0
note_on channel=0 note=81 velocity=0 time=64
note_on channel=0 note=80 velocity=69 time=0
note_on channel=0 note=80 velocity=0 time=64
note_on channel=0 note=42 velocity=0 time=0
note_on channel=0 note=81 velocity=77 time=0
note_on channel=0 note=42 velocity=74 time=0
note_on channel=0 note=81 velocity=0 time=64
note_on channel=0 note=69 velocity=61 time=0
note_on channel=0 note=69 velocity=0 time=64
note_on channel=0 note=42 velocity=0 time=0
note_on channel=0 note=78 velocity=88 time=0
note_on channel=0 note=49 velocity=88 time=0
note_on channel=0 note=78 velocity=0 time=64
note_on channel=0 note=69 velocity=64 time=0
note_on channel=0 note=69 velocity=0 time=64
note_on channel=0 note=49 velocity=0 time=0
note_on channel=0 note=81 velocity=94 time=0
note_on channel=0 note=54 velocity=82 time=0
note_on channel=0 note=81 velocity=0 time=96
note_on channel=0 note=83 velocity=83 time=0
note_on channel=0 note=83 velocity=0 time=32
note_on channel=0 note=54 velocity=0 time=0
note_on channel=0 note=81 velocity=78 time=0
note_on channel=0 note=42 velocity=64 time=0
note_on channel=0 note=81 velocity=0 time=64
note_on channel=0 note=80 velocity=70 time=0
note_on channel=0 note=80 velocity=0 time=64
note_on channel=0 note=42 velocity=0 time=0
note_on channel=0 note=81 velocity=80 time=0
note_on channel=0 note=50 velocity=78 time=0
note_on channel=0 note=81 velocity=0 time=64
note_on channel=0 note=69 velocity=53 time=0
note_on channel=0 note=69 velocity=0 time=64
note_on channel=0 note=50 velocity=0 time=0
note_on channel=0 note=76 velocity=89 time=0
note_on channel=0 note=57 velocity=81 time=0
note_on channel=0 note=76 velocity=0 time=64
note_on channel=0 note=69 velocity=67 time=0
note_on channel=0 note=69 velocity=0 time=64
note_on channel=0 note=57 velocity=0 time=0
note_on channel=0 note=81 velocity=95 time=0
note_on channel=0 note=64 velocity=87 time=0
note_on channel=0 note=81 velocity=0 time=64
note_on channel=0 note=83 velocity=82 time=0
note_on channel=0 note=83 velocity=0 time=64
note_on channel=0 note=64 velocity=0 time=0
note_on channel=0 note=81 velocity=71 time=0
note_on channel=0 note=50 velocity=68 time=0
note_on channel=0 note=81 velocity=0 time=64
note_on channel=0 note=80 velocity=72 time=0
note_on channel=0 note=80 velocity=0 time=64
note_on channel=0 note=50 velocity=0 time=0
note_on channel=0 note=81 velocity=80 time=0
note_on channel=0 note=45 velocity=73 time=0
note_on channel=0 note=81 velocity=0 time=64
note_on channel=0 note=83 velocity=81 time=0
note_on channel=0 note=83 velocity=0 time=64
note_on channel=0 note=45 velocity=0 time=0
note_on channel=0 note=85 velocity=84 time=0
note_on channel=0 note=52 velocity=82 time=0
note_on channel=0 note=85 velocity=0 time=64
note_on channel=0 note=86 velocity=79 time=0
note_on channel=0 note=86 velocity=0 time=64
note_on channel=0 note=52 velocity=0 time=0
note_on channel=0 note=88 velocity=83 time=0
note_on channel=0 note=59 velocity=83 time=0
note_on channel=0 note=88 velocity=0 time=64
note_on channel=0 note=85 velocity=69 time=0
note_on channel=0 note=85 velocity=0 time=64
note_on channel=0 note=59 velocity=0 time=0
note_on channel=0 note=83 velocity=73 time=0
note_on channel=0 note=45 velocity=64 time=0
note_on channel=0 note=83 velocity=0 time=64
note_on channel=0 note=81 velocity=77 time=0
note_on channel=0 note=81 velocity=0 time=64
note_on channel=0 note=45 velocity=0 time=0
note_on channel=0 note=80 velocity=71 time=0
note_on channel=0 note=42 velocity=68 time=0
note_on channel=0 note=80 velocity=0 time=128
note_on channel=0 note=42 velocity=0 time=0
note_on channel=0 note=71 velocity=60 time=0
note_on channel=0 note=47 velocity=81 time=0
note_on channel=0 note=71 velocity=0 time=128
note_on channel=0 note=47 velocity=0 time=0
note_on channel=0 note=68 velocity=65 time=0
note_on channel=0 note=56 velocity=88 time=0
note_on channel=0 note=68 velocity=0 time=128
note_on channel=0 note=64 velocity=67 time=0
note_on channel=0 note=64 velocity=0 time=256
note_on channel=0 note=69 velocity=87 time=0
note_on channel=0 note=69 velocity=0 time=64
note_on channel=0 note=73 velocity=86 time=0
note_on channel=0 note=73 velocity=0 time=64
note_on channel=0 note=56 velocity=0 time=0
note_on channel=0 note=81 velocity=97 time=0
note_on channel=0 note=54 velocity=76 time=0
note_on channel=0 note=81 velocity=0 time=128
note_on channel=0 note=54 velocity=0 time=0
note_on channel=0 note=80 velocity=75 time=0
note_on channel=0 note=61 velocity=91 time=0
note_on channel=0 note=80 velocity=0 time=64
note_on channel=0 note=81 velocity=90 time=0
note_on channel=0 note=81 velocity=0 time=64
note_on channel=0 note=61 velocity=0 time=0
note_on channel=0 note=81 velocity=82 time=0
note_on channel=0 note=66 velocity=87 time=0
note_on channel=0 note=81 velocity=0 time=64
note_on channel=0 note=69 velocity=58 time=0
note_on channel=0 note=69 velocity=0 time=64
note_on channel=0 note=80 velocity=92 time=0
note_on channel=0 note=80 velocity=0 time=64
note_on channel=0 note=81 velocity=93 time=0
note_on channel=0 note=81 velocity=0 time=64
note_on channel=0 note=66 velocity=0 time=0
note_on channel=0 note=81 velocity=80 time=0
note_on channel=0 note=50 velocity=68 time=0
note_on channel=0 note=81 velocity=0 time=64
note_on channel=0 note=69 velocity=57 time=0
note_on channel=0 note=69 velocity=0 time=64
note_on channel=0 note=50 velocity=0 time=0
note_on channel=0 note=76 velocity=88 time=0
note_on channel=0 note=57 velocity=82 time=0
note_on channel=0 note=76 velocity=0 time=64
note_on channel=0 note=81 velocity=98 time=0
note_on channel=0 note=81 velocity=0 time=64
note_on channel=0 note=57 velocity=0 time=0
note_on channel=0 note=81 velocity=84 time=0
note_on channel=0 note=64 velocity=90 time=0
note_on channel=0 note=81 velocity=0 time=64
note_on channel=0 note=69 velocity=61 time=0
note_on channel=0 note=69 velocity=0 time=64
note_on channel=0 note=64 velocity=0 time=0
note_on channel=0 note=74 velocity=83 time=0
note_on channel=0 note=50 velocity=70 time=0
note_on channel=0 note=74 velocity=0 time=64
note_on channel=0 note=69 velocity=68 time=0
note_on channel=0 note=69 velocity=0 time=64
note_on channel=0 note=50 velocity=0 time=0
note_on channel=0 note=73 velocity=80 time=0
note_on channel=0 note=45 velocity=72 time=0
note_on channel=0 note=73 velocity=0 time=128
note_on channel=0 note=45 velocity=0 time=0
note_on channel=0 note=74 velocity=79 time=0
note_on channel=0 note=52 velocity=85 time=0
note_on channel=0 note=74 velocity=0 time=128
note_on channel=0 note=52 velocity=0 time=0
note_on channel=0 note=69 velocity=82 time=0
note_on channel=0 note=76 velocity=82 time=0
note_on channel=0 note=61 velocity=96 time=0
note_on channel=0 note=69 velocity=0 time=128
note_on channel=0 note=76 velocity=0 time=0
note_on channel=0 note=61 velocity=0 time=0
note_on channel=0 note=73 velocity=66 time=0
note_on channel=0 note=45 velocity=69 time=0
note_on channel=0 note=73 velocity=0 time=128
note_on channel=0 note=45 velocity=0 time=0
note_on channel=0 note=68 velocity=70 time=0
note_on channel=0 note=71 velocity=70 time=0
note_on channel=0 note=52 velocity=85 time=0
note_on channel=0 note=52 velocity=0 time=128
note_on channel=0 note=59 velocity=82 time=0
note_on channel=0 note=59 velocity=0 time=128
note_on channel=0 note=64 velocity=90 time=0
note_on channel=0 note=68 velocity=0 time=128
note_on channel=0 note=71 velocity=0 time=0
note_on channel=0 note=69 velocity=74 time=0
note_on channel=0 note=69 velocity=0 time=64
note_on channel=0 note=68 velocity=78 time=0
note_on channel=0 note=68 velocity=0 time=64
note_on channel=0 note=64 velocity=0 time=0
note_on channel=0 note=64 velocity=74 time=0
note_on channel=0 note=69 velocity=74 time=0
note_on channel=0 note=54 velocity=72 time=0
note_on channel=0 note=54 velocity=0 time=128
note_on channel=0 note=59 velocity=77 time=0
note_on channel=0 note=64 velocity=0 time=192
note_on channel=0 note=69 velocity=0 time=0
note_on channel=0 note=64 velocity=68 time=0
note_on channel=0 note=64 velocity=0 time=64
note_on channel=0 note=69 velocity=84 time=0
note_on channel=0 note=69 velocity=0 time=64
note_on channel=0 note=71 velocity=83 time=0
note_on channel=0 note=71 velocity=0 time=64
note_on channel=0 note=59 velocity=0 time=0
note_on channel=0 note=73 velocity=81 time=0
note_on channel=0 note=50 velocity=68 time=0
note_on channel=0 note=73 velocity=0 time=64
note_on channel=0 note=64 velocity=60 time=0
note_on channel=0 note=64 velocity=0 time=64
note_on channel=0 note=50 velocity=0 time=0
note_on channel=0 note=69 velocity=82 time=0
note_on channel=0 note=64 velocity=91 time=0
note_on channel=0 note=69 velocity=0 time=64
note_on channel=0 note=71 velocity=85 time=0
note_on channel=0 note=71 velocity=0 time=64
note_on channel=0 note=73 velocity=83 time=0
note_on channel=0 note=73 velocity=0 time=64
note_on channel=0 note=64 velocity=63 time=0
note_on channel=0 note=64 velocity=0 time=64
note_on channel=0 note=64 velocity=0 time=0
note_on channel=0 note=73 velocity=88 time=0
note_on channel=0 note=64 velocity=86 time=0
note_on channel=0 note=73 velocity=0 time=64
note_on channel=0 note=74 velocity=82 time=0
note_on channel=0 note=74 velocity=0 time=64
note_on channel=0 note=64 velocity=0 time=0
note_on channel=0 note=76 velocity=85 time=0
note_on channel=0 note=45 velocity=66 time=0
note_on channel=0 note=76 velocity=0 time=64
note_on channel=0 note=64 velocity=60 time=0
note_on channel=0 note=64 velocity=0 time=64
note_on channel=0 note=45 velocity=0 time=0
note_on channel=0 note=73 velocity=90 time=0
note_on channel=0 note=52 velocity=83 time=0
note_on channel=0 note=73 velocity=0 time=64
note_on channel=0 note=74 velocity=82 time=0
note_on channel=0 note=74 velocity=0 time=64
note_on channel=0 note=52 velocity=0 time=0
note_on channel=0 note=76 velocity=78 time=0
note_on channel=0 note=61 velocity=94 time=0
note_on channel=0 note=76 velocity=0 time=64
note_on channel=0 note=64 velocity=57 time=0
note_on channel=0 note=64 velocity=0 time=64
note_on channel=0 note=61 velocity=0 time=0
note_on channel=0 note=74 velocity=90 time=0
note_on channel=0 note=45 velocity=67 time=0
note_on channel=0 note=74 velocity=0 time=64
note_on channel=0 note=73 velocity=75 time=0
note_on channel=0 note=73 velocity=0 time=64
note_on channel=0 note=45 velocity=0 time=0
note_on channel=0 note=71 velocity=75 time=0
note_on channel=0 note=52 velocity=79 time=0
note_on channel=0 note=71 velocity=0 time=64
note_on channel=0 note=64 velocity=61 time=0
note_on channel=0 note=64 velocity=0 time=64
note_on channel=0 note=52 velocity=0 time=0
note_on channel=0 note=74 velocity=91 time=0
note_on channel=0 note=59 velocity=87 time=0
note_on channel=0 note=74 velocity=0 time=64
note_on channel=0 note=73 velocity=75 time=0
note_on channel=0 note=73 velocity=0 time=64
note_on channel=0 note=59 velocity=0 time=0
note_on channel=0 note=71 velocity=73 time=0
note_on channel=0 note=64 velocity=84 time=0
note_on channel=0 note=71 velocity=0 time=128
note_on channel=0 note=68 velocity=68 time=0
note_on channel=0 note=68 velocity=0 time=128
note_on channel=0 note=64 velocity=0 time=0
note_on channel=0 note=81 velocity=94 time=0
note_on channel=0 note=54 velocity=66 time=0
note_on channel=0 note=81 velocity=0 time=128
note_on channel=0 note=54 velocity=0 time=0
note_on channel=0 note=80 velocity=77 time=0
note_on channel=0 note=61 velocity=90 time=0
note_on channel=0 note=80 velocity=0 time=64
note_on channel=0 note=81 velocity=78 time=0
note_on channel=0 note=61 velocity=0 time=64
note_on channel=0 note=66 velocity=88 time=0
note_on channel=0 note=81 velocity=0 time=64
note_on channel=0 note=69 velocity=52 time=0
note_on channel=0 note=69 velocity=0 time=64
note_on channel=0 note=66 velocity=0 time=0
note_on channel=0 note=80 velocity=89 time=0
note_on channel=0 note=54 velocity=67 time=0
note_on channel=0 note=80 velocity=0 time=64
note_on channel=0 note=81 velocity=82 time=0
note_on channel=0 note=54 velocity=0 time=64
note_on channel=0 note=50 velocity=67 time=0
note_on channel=0 note=81 velocity=0 time=64
note_on channel=0 note=69 velocity=55 time=0
note_on channel=0 note=69 velocity=0 time=64
note_on channel=0 note=50 velocity=0 time=0
note_on channel=0 note=76 velocity=85 time=0
note_on channel=0 note=57 velocity=79 time=0
note_on channel=0 note=76 velocity=0 time=64
note_on channel=0 note=81 velocity=87 time=0
note_on channel=0 note=57 velocity=0 time=64
note_on channel=0 note=64 velocity=91 time=0
note_on channel=0 note=81 velocity=0 time=64
note_on channel=0 note=69 velocity=56 time=0
note_on channel=0 note=69 velocity=0 time=64
note_on channel=0 note=64 velocity=0 time=0
note_on channel=0 note=74 velocity=82 time=0
note_on channel=0 note=50 velocity=70 time=0
note_on channel=0 note=74 velocity=0 time=64
note_on channel=0 note=69 velocity=68 time=0
note_on channel=0 note=69 velocity=0 time=64
note_on channel=0 note=50 velocity=0 time=0
note_on channel=0 note=73 velocity=87 time=0
note_on channel=0 note=45 velocity=69 time=0
note_on channel=0 note=73 velocity=0 time=128
note_on channel=0 note=45 velocity=0 time=0
note_on channel=0 note=74 velocity=84 time=0
note_on channel=0 note=52 velocity=84 time=0
note_on channel=0 note=74 velocity=0 time=128
note_on channel=0 note=52 velocity=0 time=0
note_on channel=0 note=76 velocity=82 time=0
note_on channel=0 note=61 velocity=94 time=0
note_on channel=0 note=76 velocity=0 time=128
note_on channel=0 note=61 velocity=0 time=0
note_on channel=0 note=85 velocity=97 time=0
note_on channel=0 note=45 velocity=70 time=0
note_on channel=0 note=85 velocity=0 time=128
note_on channel=0 note=45 velocity=0 time=0
note_on channel=0 note=83 velocity=72 time=0
note_on channel=0 note=52 velocity=82 time=0
note_on channel=0 note=83 velocity=0 time=128
note_on channel=0 note=52 velocity=0 time=0
note_on channel=0 note=76 velocity=63 time=0
note_on channel=0 note=59 velocity=87 time=0
note_on channel=0 note=76 velocity=0 time=128
note_on channel=0 note=59 velocity=0 time=0
note_on channel=0 note=83 velocity=88 time=0
note_on channel=0 note=64 velocity=82 time=0
note_on channel=0 note=83 velocity=0 time=128
note_on channel=0 note=64 velocity=0 time=0
note_on channel=0 note=81 velocity=70 time=0
note_on channel=0 note=52 velocity=70 time=0
note_on channel=0 note=81 velocity=0 time=64
note_on channel=0 note=80 velocity=74 time=0
note_on channel=0 note=80 velocity=0 time=64
note_on channel=0 note=52 velocity=0 time=0
note_on channel=0 note=76 velocity=81 time=0
note_on channel=0 note=81 velocity=81 time=0
note_on channel=0 note=54 velocity=79 time=0
note_on channel=0 note=54 velocity=0 time=128
note_on channel=0 note=61 velocity=90 time=0
note_on channel=0 note=61 velocity=0 time=128
note_on channel=0 note=66 velocity=87 time=0
note_on channel=0 note=76 velocity=0 time=128
note_on channel=0 note=81 velocity=0 time=0
note_on channel=0 note=69 velocity=58 time=0
note_on channel=0 note=69 velocity=0 time=64
note_on channel=0 note=71 velocity=77 time=0
note_on channel=0 note=71 velocity=0 time=64
note_on channel=0 note=66 velocity=0 time=0
note_on channel=0 note=73 velocity=86 time=0
note_on channel=0 note=50 velocity=64 time=0
note_on channel=0 note=73 velocity=0 time=64
note_on channel=0 note=64 velocity=56 time=0
note_on channel=0 note=64 velocity=0 time=64
note_on channel=0 note=50 velocity=0 time=0
note_on channel=0 note=69 velocity=88 time=0
note_on channel=0 note=57 velocity=82 time=0
note_on channel=0 note=69 velocity=0 time=64
note_on channel=0 note=71 velocity=79 time=0
note_on channel=0 note=71 velocity=0 time=64
note_on channel=0 note=57 velocity=0 time=0
note_on channel=0 note=73 velocity=84 time=0
note_on channel=0 note=64 velocity=94 time=0
note_on channel=0 note=73 velocity=0 time=64
note_on channel=0 note=64 velocity=59 time=0
note_on channel=0 note=64 velocity=0 time=64
note_on channel=0 note=64 velocity=0 time=0
note_on channel=0 note=73 velocity=91 time=0
note_on channel=0 note=50 velocity=69 time=0
note_on channel=0 note=73 velocity=0 time=64
note_on channel=0 note=74 velocity=81 time=0
note_on channel=0 note=74 velocity=0 time=64
note_on channel=0 note=50 velocity=0 time=0
note_on channel=0 note=76 velocity=83 time=0
note_on channel=0 note=45 velocity=71 time=0
note_on channel=0 note=76 velocity=0 time=64
note_on channel=0 note=64 velocity=57 time=0
note_on channel=0 note=64 velocity=0 time=64
note_on channel=0 note=45 velocity=0 time=0
note_on channel=0 note=73 velocity=90 time=0
note_on channel=0 note=52 velocity=84 time=0
note_on channel=0 note=73 velocity=0 time=64
note_on channel=0 note=74 velocity=82 time=0
note_on channel=0 note=74 velocity=0 time=64
note_on channel=0 note=52 velocity=0 time=0
note_on channel=0 note=76 velocity=81 time=0
note_on channel=0 note=61 velocity=92 time=0
note_on channel=0 note=76 velocity=0 time=64
note_on channel=0 note=64 velocity=54 time=0
note_on channel=0 note=64 velocity=0 time=64
note_on channel=0 note=61 velocity=0 time=0
note_on channel=0 note=74 velocity=91 time=0
note_on channel=0 note=45 velocity=68 time=0
note_on channel=0 note=74 velocity=0 time=64
note_on channel=0 note=73 velocity=75 time=0
note_on channel=0 note=73 velocity=0 time=64
note_on channel=0 note=45 velocity=0 time=0
note_on channel=0 note=71 velocity=68 time=0
note_on channel=0 note=40 velocity=68 time=0
note_on channel=0 note=71 velocity=0 time=64
note_on channel=0 note=64 velocity=61 time=0
note_on channel=0 note=64 velocity=0 time=64
note_on channel=0 note=40 velocity=0 time=0
note_on channel=0 note=68 velocity=79 time=0
note_on channel=0 note=47 velocity=83 time=0
note_on channel=0 note=68 velocity=0 time=64
note_on channel=0 note=71 velocity=81 time=0
note_on channel=0 note=71 velocity=0 time=64
note_on channel=0 note=47 velocity=0 time=0
note_on channel=0 note=81 velocity=92 time=0
note_on channel=0 note=56 velocity=80 time=0
note_on channel=0 note=81 velocity=0 time=64
note_on channel=0 note=83 velocity=81 time=0
note_on channel=0 note=83 velocity=0 time=64
note_on channel=0 note=56 velocity=0 time=0
note_on channel=0 note=81 velocity=73 time=0
note_on channel=0 note=40 velocity=70 time=0
note_on channel=0 note=81 velocity=0 time=64
note_on channel=0 note=80 velocity=68 time=0
note_on channel=0 note=80 velocity=0 time=64
note_on channel=0 note=40 velocity=0 time=0
note_on channel=0 note=81 velocity=80 time=0
note_on channel=0 note=42 velocity=76 time=0
note_on channel=0 note=81 velocity=0 time=64
note_on channel=0 note=69 velocity=53 time=0
note_on channel=0 note=69 velocity=0 time=64
note_on channel=0 note=42 velocity=0 time=0
note_on channel=0 note=76 velocity=85 time=0
note_on channel=0 note=49 velocity=84 time=0
note_on channel=0 note=76 velocity=0 time=64
note_on channel=0 note=69 velocity=64 time=0
note_on channel=0 note=69 velocity=0 time=64
note_on channel=0 note=49 velocity=0 time=0
note_on channel=0 note=81 velocity=92 time=0
note_on channel=0 note=54 velocity=84 time=0
note_on channel=0 note=81 velocity=0 time=64
note_on channel=0 note=81 velocity=82 time=0
note_on channel=0 note=81 velocity=0 time=32
note_on channel=0 note=83 velocity=82 time=0
note_on channel=0 note=83 velocity=0 time=32
note_on channel=0 note=54 velocity=0 time=0
note_on channel=0 note=83 velocity=75 time=0
note_on channel=0 note=42 velocity=68 time=0
note_on channel=0 note=83 velocity=0 time=64
note_on channel=0 note=80 velocity=73 time=0
note_on channel=0 note=80 velocity=0 time=64
note_on channel=0 note=42 velocity=0 time=0
note_on channel=0 note=81 velocity=78 time=0
note_on channel=0 note=50 velocity=81 time=0
note_on channel=0 note=81 velocity=0 time=64
note_on channel=0 note=69 velocity=55 time=0
note_on channel=0 note=69 velocity=0 time=64
note_on channel=0 note=50 velocity=0 time=0
note_on channel=0 note=76 velocity=85 time=0
note_on channel=0 note=57 velocity=86 time=0
note_on channel=0 note=76 velocity=0 time=64
note_on channel=0 note=69 velocity=64 time=0
note_on channel=0 note=69 velocity=0 time=64
note_on channel=0 note=57 velocity=0 time=0
note_on channel=0 note=81 velocity=93 time=0
note_on channel=0 note=62 velocity=92 time=0
note_on channel=0 note=81 velocity=0 time=64
note_on channel=0 note=81 velocity=82 time=0
note_on channel=0 note=81 velocity=0 time=32
note_on channel=0 note=83 velocity=82 time=0
note_on channel=0 note=83 velocity=0 time=32
note_on channel=0 note=62 velocity=0 time=0
note_on channel=0 note=81 velocity=73 time=0
note_on channel=0 note=50 velocity=63 time=0
note_on channel=0 note=81 velocity=0 time=64
note_on channel=0 note=80 velocity=74 time=0
note_on channel=0 note=80 velocity=0 time=64
note_on channel=0 note=50 velocity=0 time=0
note_on channel=0 note=81 velocity=76 time=0
note_on channel=0 note=45 velocity=72 time=0
note_on channel=0 note=81 velocity=0 time=64
note_on channel=0 note=83 velocity=86 time=0
note_on channel=0 note=83 velocity=0 time=64
note_on channel=0 note=45 velocity=0 time=0
note_on channel=0 note=85 velocity=81 time=0
note_on channel=0 note=52 velocity=80 time=0
note_on channel=0 note=85 velocity=0 time=64
note_on channel=0 note=86 velocity=80 time=0
note_on channel=0 note=86 velocity=0 time=64
note_on channel=0 note=52 velocity=0 time=0
note_on channel=0 note=88 velocity=83 time=0
note_on channel=0 note=59 velocity=86 time=0
note_on channel=0 note=88 velocity=0 time=64
note_on channel=0 note=85 velocity=72 time=0
note_on channel=0 note=85 velocity=0 time=64
note_on channel=0 note=59 velocity=0 time=0
note_on channel=0 note=83 velocity=70 time=0
note_on channel=0 note=45 velocity=71 time=0
note_on channel=0 note=83 velocity=0 time=64
note_on channel=0 note=81 velocity=66 time=0
note_on channel=0 note=81 velocity=0 time=64
note_on channel=0 note=45 velocity=0 time=0
note_on channel=0 note=80 velocity=77 time=0
note_on channel=0 note=42 velocity=72 time=0
note_on channel=0 note=80 velocity=0 time=64
note_on channel=0 note=71 velocity=57 time=0
note_on channel=0 note=71 velocity=0 time=64
note_on channel=0 note=42 velocity=0 time=0
note_on channel=0 note=76 velocity=81 time=0
note_on channel=0 note=47 velocity=82 time=0
note_on channel=0 note=76 velocity=0 time=64
note_on channel=0 note=71 velocity=64 time=0
note_on channel=0 note=71 velocity=0 time=64
note_on channel=0 note=47 velocity=0 time=0
note_on channel=0 note=81 velocity=95 time=0
note_on channel=0 note=56 velocity=83 time=0
note_on channel=0 note=81 velocity=0 time=64
note_on channel=0 note=81 velocity=80 time=0
note_on channel=0 note=81 velocity=0 time=32
note_on channel=0 note=83 velocity=79 time=0
note_on channel=0 note=83 velocity=0 time=32
note_on channel=0 note=56 velocity=0 time=0
note_on channel=0 note=81 velocity=76 time=0
note_on channel=0 note=42 velocity=64 time=0
note_on channel=0 note=81 velocity=0 time=64
note_on channel=0 note=80 velocity=70 time=0
note_on channel=0 note=80 velocity=0 time=64
note_on channel=0 note=42 velocity=0 time=0
note_on channel=0 note=81 velocity=79 time=0
note_on channel=0 note=42 velocity=76 time=0
note_on channel=0 note=81 velocity=0 time=64
note_on channel=0 note=69 velocity=55 time=0
note_on channel=0 note=69 velocity=0 time=64
note_on channel=0 note=42 velocity=0 time=0
note_on channel=0 note=76 velocity=82 time=0
note_on channel=0 note=49 velocity=81 time=0
note_on channel=0 note=76 velocity=0 time=64
note_on channel=0 note=69 velocity=65 time=0
note_on channel=0 note=69 velocity=0 time=64
note_on channel=0 note=49 velocity=0 time=0
note_on channel=0 note=81 velocity=95 time=0
note_on channel=0 note=54 velocity=84 time=0
note_on channel=0 note=81 velocity=0 time=64
note_on channel=0 note=81 velocity=75 time=0
note_on channel=0 note=81 velocity=0 time=32
note_on channel=0 note=83 velocity=83 time=0
note_on channel=0 note=83 velocity=0 time=32
note_on channel=0 note=54 velocity=0 time=0
note_on channel=0 note=83 velocity=79 time=0
note_on channel=0 note=42 velocity=66 time=0
note_on channel=0 note=83 velocity=0 time=64
note_on channel=0 note=80 velocity=72 time=0
note_on channel=0 note=80 velocity=0 time=64
note_on channel=0 note=42 velocity=0 time=0
note_on channel=0 note=81 velocity=79 time=0
note_on channel=0 note=50 velocity=81 time=0
note_on channel=0 note=81 velocity=0 time=64
note_on channel=0 note=69 velocity=54 time=0
note_on channel=0 note=69 velocity=0 time=64
note_on channel=0 note=50 velocity=0 time=0
note_on channel=0 note=76 velocity=87 time=0
note_on channel=0 note=57 velocity=81 time=0
note_on channel=0 note=76 velocity=0 time=64
note_on channel=0 note=69 velocity=63 time=0
note_on channel=0 note=69 velocity=0 time=64
note_on channel=0 note=57 velocity=0 time=0
note_on channel=0 note=81 velocity=96 time=0
note_on channel=0 note=62 velocity=90 time=0
note_on channel=0 note=81 velocity=0 time=64
note_on channel=0 note=81 velocity=81 time=0
note_on channel=0 note=81 velocity=0 time=32
note_on channel=0 note=83 velocity=79 time=0
note_on channel=0 note=83 velocity=0 time=32
note_on channel=0 note=62 velocity=0 time=0
note_on channel=0 note=81 velocity=74 time=0
note_on channel=0 note=50 velocity=66 time=0
note_on channel=0 note=81 velocity=0 time=64
note_on channel=0 note=80 velocity=73 time=0
note_on channel=0 note=80 velocity=0 time=64
note_on channel=0 note=50 velocity=0 time=0
note_on channel=0 note=81 velocity=77 time=0
note_on channel=0 note=45 velocity=71 time=0
note_on channel=0 note=81 velocity=0 time=64
note_on channel=0 note=83 velocity=80 time=0
note_on channel=0 note=83 velocity=0 time=64
note_on channel=0 note=45 velocity=0 time=0
note_on channel=0 note=85 velocity=79 time=0
note_on channel=0 note=52 velocity=79 time=0
note_on channel=0 note=85 velocity=0 time=64
note_on channel=0 note=86 velocity=83 time=0
note_on channel=0 note=86 velocity=0 time=64
note_on channel=0 note=52 velocity=0 time=0
note_on channel=0 note=88 velocity=81 time=0
note_on channel=0 note=59 velocity=87 time=0
note_on channel=0 note=88 velocity=0 time=64
note_on channel=0 note=85 velocity=67 time=0
note_on channel=0 note=85 velocity=0 time=64
note_on channel=0 note=59 velocity=0 time=0
note_on channel=0 note=83 velocity=66 time=0
note_on channel=0 note=45 velocity=68 time=0
note_on channel=0 note=83 velocity=0 time=64
note_on channel=0 note=81 velocity=71 time=0
note_on channel=0 note=81 velocity=0 time=64
note_on channel=0 note=45 velocity=0 time=0
note_on channel=0 note=80 velocity=70 time=0
note_on channel=0 note=42 velocity=72 time=0
note_on channel=0 note=80 velocity=0 time=64
note_on channel=0 note=71 velocity=61 time=0
note_on channel=0 note=71 velocity=0 time=64
note_on channel=0 note=42 velocity=0 time=0
note_on channel=0 note=76 velocity=87 time=0
note_on channel=0 note=47 velocity=84 time=0
note_on channel=0 note=76 velocity=0 time=64
note_on channel=0 note=71 velocity=67 time=0
note_on channel=0 note=71 velocity=0 time=64
note_on channel=0 note=47 velocity=0 time=0
note_on channel=0 note=81 velocity=91 time=0
note_on channel=0 note=56 velocity=87 time=0
note_on channel=0 note=81 velocity=0 time=64
note_on channel=0 note=81 velocity=79 time=0
note_on channel=0 note=81 velocity=0 time=32
note_on channel=0 note=83 velocity=80 time=0
note_on channel=0 note=83 velocity=0 time=32
note_on channel=0 note=56 velocity=0 time=0
note_on channel=0 note=81 velocity=72 time=0
note_on channel=0 note=42 velocity=67 time=0
note_on channel=0 note=81 velocity=0 time=64
note_on channel=0 note=80 velocity=70 time=0
note_on channel=0 note=80 velocity=0 time=64
note_on channel=0 note=42 velocity=0 time=0
note_on channel=0 note=81 velocity=79 time=0
note_on channel=0 note=42 velocity=77 time=0
note_on channel=0 note=81 velocity=0 time=64
note_on channel=0 note=69 velocity=54 time=0
note_on channel=0 note=69 velocity=0 time=64
note_on channel=0 note=42 velocity=0 time=0
note_on channel=0 note=76 velocity=83 time=0
note_on channel=0 note=49 velocity=81 time=0
note_on channel=0 note=76 velocity=0 time=64
note_on channel=0 note=69 velocity=69 time=0
note_on channel=0 note=69 velocity=0 time=64
note_on channel=0 note=49 velocity=0 time=0
note_on channel=0 note=81 velocity=92 time=0
note_on channel=0 note=54 velocity=83 time=0
note_on channel=0 note=81 velocity=0 time=64
note_on channel=0 note=83 velocity=83 time=0
note_on channel=0 note=83 velocity=0 time=64
note_on channel=0 note=54 velocity=0 time=0
note_on channel=0 note=81 velocity=72 time=0
note_on channel=0 note=42 velocity=69 time=0
note_on channel=0 note=81 velocity=0 time=64
note_on channel=0 note=80 velocity=74 time=0
note_on channel=0 note=80 velocity=0 time=64
note_on channel=0 note=42 velocity=0 time=0
note_on channel=0 note=81 velocity=79 time=0
note_on channel=0 note=50 velocity=81 time=0
note_on channel=0 note=81 velocity=0 time=64
note_on channel=0 note=69 velocity=57 time=0
note_on channel=0 note=69 velocity=0 time=64
note_on channel=0 note=50 velocity=0 time=0
note_on channel=0 note=76 velocity=86 time=0
note_on channel=0 note=57 velocity=79 time=0
note_on channel=0 note=76 velocity=0 time=64
note_on channel=0 note=69 velocity=61 time=0
note_on channel=0 note=69 velocity=0 time=64
note_on channel=0 note=57 velocity=0 time=0
note_on channel=0 note=81 velocity=94 time=0
note_on channel=0 note=62 velocity=92 time=0
note_on channel=0 note=81 velocity=0 time=64
note_on channel=0 note=83 velocity=84 time=0
note_on channel=0 note=83 velocity=0 time=64
note_on channel=0 note=62 velocity=0 time=0
note_on channel=0 note=81 velocity=71 time=0
note_on channel=0 note=50 velocity=69 time=0
note_on channel=0 note=81 velocity=0 time=64
note_on channel=0 note=80 velocity=71 time=0
note_on channel=0 note=80 velocity=0 time=64
note_on channel=0 note=50 velocity=0 time=0
note_on channel=0 note=81 velocity=78 time=0
note_on channel=0 note=45 velocity=67 time=0
note_on channel=0 note=81 velocity=0 time=64
note_on channel=0 note=83 velocity=80 time=0
note_on channel=0 note=83 velocity=0 time=64
note_on channel=0 note=45 velocity=0 time=0
note_on channel=0 note=85 velocity=77 time=0
note_on channel=0 note=52 velocity=85 time=0
note_on channel=0 note=85 velocity=0 time=64
note_on channel=0 note=86 velocity=79 time=0
note_on channel=0 note=86 velocity=0 time=64
note_on channel=0 note=52 velocity=0 time=0
note_on channel=0 note=88 velocity=80 time=0
note_on channel=0 note=59 velocity=85 time=0
note_on channel=0 note=88 velocity=0 time=64
note_on channel=0 note=85 velocity=65 time=0
note_on channel=0 note=85 velocity=0 time=64
note_on channel=0 note=59 velocity=0 time=0
note_on channel=0 note=83 velocity=69 time=0
note_on channel=0 note=45 velocity=71 time=0
note_on channel=0 note=83 velocity=0 time=64
note_on channel=0 note=81 velocity=71 time=0
note_on channel=0 note=81 velocity=0 time=64
note_on channel=0 note=45 velocity=0 time=0
note_on channel=0 note=80 velocity=73 time=0
note_on channel=0 note=42 velocity=71 time=0
note_on channel=0 note=80 velocity=0 time=128
note_on channel=0 note=42 velocity=0 time=0
note_on channel=0 note=71 velocity=56 time=0
note_on channel=0 note=47 velocity=85 time=0
note_on channel=0 note=71 velocity=0 time=128
note_on channel=0 note=47 velocity=0 time=0
note_on channel=0 note=81 velocity=93 time=0
note_on channel=0 note=56 velocity=87 time=0
note_on channel=0 note=81 velocity=0 time=64
note_on channel=0 note=81 velocity=78 time=0
note_on channel=0 note=81 velocity=0 time=32
note_on channel=0 note=83 velocity=80 time=0
note_on channel=0 note=83 velocity=0 time=32
note_on channel=0 note=56 velocity=0 time=0
note_on channel=0 note=83 velocity=75 time=0
note_on channel=0 note=42 velocity=67 time=0
note_on channel=0 note=83 velocity=0 time=64
note_on channel=0 note=80 velocity=68 time=0
note_on channel=0 note=80 velocity=0 time=64
note_on channel=0 note=42 velocity=0 time=0
note_on channel=0 note=81 velocity=81 time=0
note_on channel=0 note=42 velocity=75 time=0
note_on channel=0 note=81 velocity=0 time=64
note_on channel=0 note=69 velocity=57 time=0
note_on channel=0 note=69 velocity=0 time=64
note_on channel=0 note=42 velocity=0 time=0
note_on channel=0 note=76 velocity=84 time=0
note_on channel=0 note=49 velocity=80 time=0
note_on channel=0 note=76 velocity=0 time=64
note_on channel=0 note=69 velocity=64 time=0
note_on channel=0 note=69 velocity=0 time=64
note_on channel=0 note=49 velocity=0 time=0
note_on channel=0 note=81 velocity=94 time=0
note_on channel=0 note=54 velocity=83 time=0
note_on channel=0 note=81 velocity=0 time=64
note_on channel=0 note=81 velocity=77 time=0
note_on channel=0 note=81 velocity=0 time=32
note_on channel=0 note=83 velocity=83 time=0
note_on channel=0 note=83 velocity=0 time=32
note_on channel=0 note=54 velocity=0 time=0
note_on channel=0 note=81 velocity=69 time=0
note_on channel=0 note=42 velocity=65 time=0
note_on channel=0 note=81 velocity=0 time=64
note_on channel=0 note=80 velocity=72 time=0
note_on channel=0 note=80 velocity=0 time=64
note_on channel=0 note=42 velocity=0 time=0
note_on channel=0 note=81 velocity=79 time=0
note_on channel=0 note=50 velocity=82 time=0
note_on channel=0 note=81 velocity=0 time=64
note_on channel=0 note=69 velocity=57 time=0
note_on channel=0 note=69 velocity=0 time=64
note_on channel=0 note=50 velocity=0 time=0
note_on channel=0 note=76 velocity=90 time=0
note_on channel=0 note=57 velocity=84 time=0
note_on channel=0 note=76 velocity=0 time=64
note_on channel=0 note=69 velocity=60 time=0
note_on channel=0 note=69 velocity=0 time=64
note_on channel=0 note=57 velocity=0 time=0
note_on channel=0 note=81 velocity=95 time=0
note_on channel=0 note=64 velocity=91 time=0
note_on channel=0 note=81 velocity=0 time=64
note_on channel=0 note=81 velocity=80 time=0
note_on channel=0 note=81 velocity=0 time=32
note_on channel=0 note=83 velocity=83 time=0
note_on channel=0 note=83 velocity=0 time=32
note_on channel=0 note=64 velocity=0 time=0
note_on channel=0 note=81 velocity=72 time=0
note_on channel=0 note=50 velocity=67 time=0
note_on channel=0 note=81 velocity=0 time=64
note_on channel=0 note=80 velocity=78 time=0
note_on channel=0 note=80 velocity=0 time=64
note_on channel=0 note=50 velocity=0 time=0
note_on channel=0 note=81 velocity=80 time=0
note_on channel=0 note=45 velocity=69 time=0
note_on channel=0 note=81 velocity=0 time=64
note_on channel=0 note=83 velocity=79 time=0
note_on channel=0 note=83 velocity=0 time=64
note_on channel=0 note=45 velocity=0 time=0
note_on channel=0 note=85 velocity=83 time=0
note_on channel=0 note=52 velocity=81 time=0
note_on channel=0 note=85 velocity=0 time=64
note_on channel=0 note=86 velocity=81 time=0
note_on channel=0 note=86 velocity=0 time=64
note_on channel=0 note=52 velocity=0 time=0
note_on channel=0 note=88 velocity=84 time=0
note_on channel=0 note=61 velocity=92 time=0
note_on channel=0 note=88 velocity=0 time=64
note_on channel=0 note=85 velocity=68 time=0
note_on channel=0 note=85 velocity=0 time=64
note_on channel=0 note=61 velocity=0 time=0
note_on channel=0 note=83 velocity=76 time=0
note_on channel=0 note=45 velocity=65 time=0
note_on channel=0 note=83 velocity=0 time=64
note_on channel=0 note=81 velocity=71 time=0
note_on channel=0 note=81 velocity=0 time=64
note_on channel=0 note=45 velocity=0 time=0
note_on channel=0 note=80 velocity=70 time=0
note_on channel=0 note=40 velocity=70 time=0
note_on channel=0 note=80 velocity=0 time=128
note_on channel=0 note=40 velocity=0 time=0
note_on channel=0 note=74 velocity=69 time=0
note_on channel=0 note=47 velocity=82 time=0
note_on channel=0 note=74 velocity=0 time=128
note_on channel=0 note=47 velocity=0 time=0
note_on channel=0 note=68 velocity=61 time=0
note_on channel=0 note=56 velocity=88 time=0
note_on channel=0 note=68 velocity=0 time=128
note_on channel=0 note=64 velocity=66 time=0
note_on channel=0 note=64 velocity=0 time=128
note_on channel=0 note=56 velocity=0 time=0
note_on channel=0 note=81 velocity=98 time=0
note_on channel=0 note=54 velocity=87 time=0
note_on channel=0 note=61 velocity=87 time=0
note_on channel=0 note=81 velocity=0 time=128
note_on channel=0 note=80 velocity=79 time=0
note_on channel=0 note=80 velocity=0 time=128
note_on channel=0 note=81 velocity=77 time=0
note_on channel=0 note=81 velocity=0 time=128
note_on channel=0 note=80 velocity=71 time=0
note_on channel=0 note=80 velocity=0 time=128
note_on channel=0 note=54 velocity=0 time=0
note_on channel=0 note=61 velocity=0 time=0
note_on channel=0 note=73 velocity=77 time=0
note_on channel=0 note=80 velocity=77 time=0
note_on channel=0 note=54 velocity=71 time=0
note_on channel=0 note=73 velocity=0 time=128
note_on channel=0 note=80 velocity=0 time=0
note_on channel=0 note=54 velocity=0 time=0
note_on channel=0 note=76 velocity=66 time=0
note_on channel=0 note=62 velocity=93 time=0
note_on channel=0 note=76 velocity=0 time=128
note_on channel=0 note=62 velocity=0 time=0
note_on channel=0 note=81 velocity=88 time=0
note_on channel=0 note=66 velocity=89 time=0
note_on channel=0 note=81 velocity=0 time=128
note_on channel=0 note=66 velocity=0 time=0
note_on channel=0 note=74 velocity=64 time=0
note_on channel=0 note=54 velocity=69 time=0
note_on channel=0 note=74 velocity=0 time=128
note_on channel=0 note=54 velocity=0 time=0
note_on channel=0 note=73 velocity=72 time=0
note_on channel=0 note=52 velocity=74 time=0
note_on channel=0 note=73 velocity=0 time=128
note_on channel=0 note=52 velocity=0 time=0
note_on channel=0 note=74 velocity=80 time=0
note_on channel=0 note=61 velocity=98 time=0
note_on channel=0 note=74 velocity=0 time=128
note_on channel=0 note=61 velocity=0 time=0
note_on channel=0 note=76 velocity=85 time=0
note_on channel=0 note=69 velocity=96 time=0
note_on channel=0 note=76 velocity=0 time=128
note_on channel=0 note=69 velocity=0 time=0
note_on channel=0 note=73 velocity=75 time=0
note_on channel=0 note=73 velocity=0 time=128
note_on channel=0 note=71 velocity=71 time=0
note_on channel=0 note=64 velocity=70 time=0
note_on channel=0 note=68 velocity=70 time=0
note_on channel=0 note=71 velocity=0 time=256
note_on channel=0 note=69 velocity=71 time=0
note_on channel=0 note=69 velocity=0 time=128
note_on channel=0 note=68 velocity=71 time=0
note_on channel=0 note=68 velocity=0 time=128
note_on channel=0 note=64 velocity=0 time=0
note_on channel=0 note=68 velocity=0 time=0
note_on channel=0 note=61 velocity=82 time=0
note_on channel=0 note=64 velocity=82 time=0
note_on channel=0 note=69 velocity=82 time=0
note_on channel=0 note=42 velocity=63 time=0
note_on channel=0 note=42 velocity=0 time=128
note_on channel=0 note=49 velocity=80 time=0
note_on channel=0 note=61 velocity=0 time=128
note_on channel=0 note=64 velocity=0 time=0
note_on channel=0 note=69 velocity=0 time=0
note_on channel=0 note=64 velocity=70 time=0
note_on channel=0 note=64 velocity=0 time=128
note_on channel=0 note=69 velocity=88 time=0
note_on channel=0 note=69 velocity=0 time=64
note_on channel=0 note=71 velocity=82 time=0
note_on channel=0 note=71 velocity=0 time=64
note_on channel=0 note=49 velocity=0 time=0
note_on channel=0 note=73 velocity=80 time=0
note_on channel=0 note=50 velocity=78 time=0
note_on channel=0 note=73 velocity=0 time=128
note_on channel=0 note=50 velocity=0 time=0
note_on channel=0 note=64 velocity=61 time=0
note_on channel=0 note=57 velocity=85 time=0
note_on channel=0 note=64 velocity=0 time=128
note_on channel=0 note=57 velocity=0 time=0
note_on channel=0 note=69 velocity=86 time=0
note_on channel=0 note=66 velocity=93 time=0
note_on channel=0 note=69 velocity=0 time=128
note_on channel=0 note=73 velocity=87 time=0
note_on channel=0 note=73 velocity=0 time=64
note_on channel=0 note=74 velocity=77 time=0
note_on channel=0 note=74 velocity=0 time=64
note_on channel=0 note=66 velocity=0 time=0
note_on channel=0 note=81 velocity=91 time=0
note_on channel=0 note=54 velocity=70 time=0
note_on channel=0 note=81 velocity=0 time=128
note_on channel=0 note=54 velocity=0 time=0
note_on channel=0 note=80 velocity=73 time=0
note_on channel=0 note=61 velocity=89 time=0
note_on channel=0 note=80 velocity=0 time=128
note_on channel=0 note=61 velocity=0 time=0
note_on channel=0 note=81 velocity=81 time=0
note_on channel=0 note=66 velocity=91 time=0
note_on channel=0 note=81 velocity=0 time=128
note_on channel=0 note=80 velocity=69 time=0
note_on channel=0 note=80 velocity=0 time=128
note_on channel=0 note=66 velocity=0 time=0
note_on channel=0 note=73 velocity=81 time=0
note_on channel=0 note=76 velocity=81 time=0
note_on channel=0 note=81 velocity=81 time=0
note_on channel=0 note=50 velocity=71 time=0
note_on channel=0 note=73 velocity=0 time=128
note_on channel=0 note=76 velocity=0 time=0
note_on channel=0 note=81 velocity=0 time=0
note_on channel=0 note=50 velocity=0 time=0
note_on channel=0 note=76 velocity=64 time=0
note_on channel=0 note=57 velocity=77 time=0
note_on channel=0 note=76 velocity=0 time=128
note_on channel=0 note=57 velocity=0 time=0
note_on channel=0 note=81 velocity=86 time=0
note_on channel=0 note=66 velocity=86 time=0
note_on channel=0 note=81 velocity=0 time=128
note_on channel=0 note=66 velocity=0 time=0
note_on channel=0 note=74 velocity=65 time=0
note_on channel=0 note=50 velocity=68 time=0
note_on channel=0 note=74 velocity=0 time=128
note_on channel=0 note=50 velocity=0 time=0
note_on channel=0 note=73 velocity=70 time=0
note_on channel=0 note=45 velocity=69 time=0
note_on channel=0 note=73 velocity=0 time=128
note_on channel=0 note=45 velocity=0 time=0
note_on channel=0 note=74 velocity=76 time=0
note_on channel=0 note=52 velocity=80 time=0
note_on channel=0 note=74 velocity=0 time=128
note_on channel=0 note=52 velocity=0 time=0
note_on channel=0 note=76 velocity=80 time=0
note_on channel=0 note=61 velocity=90 time=0
note_on channel=0 note=76 velocity=0 time=128
note_on channel=0 note=61 velocity=0 time=0
note_on channel=0 note=85 velocity=89 time=0
note_on channel=0 note=85 velocity=0 time=128
note_on channel=0 note=76 velocity=75 time=0
note_on channel=0 note=81 velocity=75 time=0
note_on channel=0 note=52 velocity=67 time=0
note_on channel=0 note=52 velocity=0 time=128
note_on channel=0 note=59 velocity=85 time=0
note_on channel=0 note=59 velocity=0 time=128
note_on channel=0 note=69 velocity=89 time=0
note_on channel=0 note=76 velocity=0 time=128
note_on channel=0 note=81 velocity=0 time=0
note_on channel=0 note=69 velocity=0 time=0
note_on channel=0 note=69 velocity=53 time=0
note_on channel=0 note=69 velocity=0 time=64
note_on channel=0 note=68 velocity=68 time=0
note_on channel=0 note=68 velocity=0 time=64
note_on channel=0 note=64 velocity=81 time=0
note_on channel=0 note=69 velocity=81 time=0
note_on channel=0 note=42 velocity=69 time=0
note_on channel=0 note=42 velocity=0 time=128
note_on channel=0 note=49 velocity=86 time=0
note_on channel=0 note=49 velocity=0 time=128
note_on channel=0 note=54 velocity=81 time=0
note_on channel=0 note=64 velocity=0 time=128
note_on channel=0 note=69 velocity=0 time=0
note_on channel=0 note=69 velocity=78 time=0
note_on channel=0 note=69 velocity=0 time=64
note_on channel=0 note=71 velocity=81 time=0
note_on channel=0 note=71 velocity=0 time=64
note_on channel=0 note=54 velocity=0 time=0
note_on channel=0 note=73 velocity=83 time=0
note_on channel=0 note=50 velocity=71 time=0
note_on channel=0 note=73 velocity=0 time=128
note_on channel=0 note=50 velocity=0 time=0
note_on channel=0 note=64 velocity=59 time=0
note_on channel=0 note=57 velocity=86 time=0
note_on channel=0 note=64 velocity=0 time=128
note_on channel=0 note=57 velocity=0 time=0
note_on channel=0 note=69 velocity=87 time=0
note_on channel=0 note=62 velocity=86 time=0
note_on channel=0 note=69 velocity=0 time=128
note_on channel=0 note=73 velocity=88 time=0
note_on channel=0 note=73 velocity=0 time=64
note_on channel=0 note=74 velocity=82 time=0
note_on channel=0 note=74 velocity=0 time=64
note_on channel=0 note=62 velocity=0 time=0
note_on channel=0 note=76 velocity=80 time=0
note_on channel=0 note=45 velocity=71 time=0
note_on channel=0 note=76 velocity=0 time=128
note_on channel=0 note=45 velocity=0 time=0
note_on channel=0 note=64 velocity=57 time=0
note_on channel=0 note=52 velocity=85 time=0
note_on channel=0 note=64 velocity=0 time=128
note_on channel=0 note=52 velocity=0 time=0
note_on channel=0 note=69 velocity=87 time=0
note_on channel=0 note=54 velocity=82 time=0
note_on channel=0 note=69 velocity=0 time=128
note_on channel=0 note=74 velocity=89 time=0
note_on channel=0 note=74 velocity=0 time=64
note_on channel=0 note=73 velocity=77 time=0
note_on channel=0 note=73 velocity=0 time=64
note_on channel=0 note=54 velocity=0 time=0
note_on channel=0 note=71 velocity=73 time=0
note_on channel=0 note=40 velocity=68 time=0
note_on channel=0 note=40 velocity=0 time=128
note_on channel=0 note=49 velocity=80 time=0
note_on channel=0 note=71 velocity=0 time=128
note_on channel=0 note=49 velocity=0 time=0
note_on channel=0 note=64 velocity=60 time=0
note_on channel=0 note=56 velocity=85 time=0
note_on channel=0 note=64 velocity=0 time=256
note_on channel=0 note=56 velocity=0 time=0
note_on channel=0 note=69 velocity=81 time=0
note_on channel=0 note=42 velocity=65 time=0
note_on channel=0 note=69 velocity=0 time=128
note_on channel=0 note=42 velocity=0 time=0
note_on channel=0 note=57 velocity=70 time=0
note_on channel=0 note=49 velocity=79 time=0
note_on channel=0 note=57 velocity=0 time=128
note_on channel=0 note=49 velocity=0 time=0
note_on channel=0 note=61 velocity=87 time=0
note_on channel=0 note=54 velocity=81 time=0
note_on channel=0 note=61 velocity=0 time=128
note_on channel=0 note=66 velocity=91 time=0
note_on channel=0 note=66 velocity=0 time=128
note_on channel=0 note=69 velocity=81 time=0
note_on channel=0 note=54 velocity=0 time=256
note_on channel=0 note=69 velocity=0 time=256
MetaMessage('end_of_track', time=1)
